<svg width="74" height="20" viewBox="0 0 74 20" fill="none" xmlns="http://www.w3.org/2000/svg">
<g clip-path="url(#clip0_1589_15297)">
<path fill-rule="evenodd" clip-rule="evenodd" d="M9.23057 15.1046H1.10896C0.801957 15.1046 0.524495 15.2312 0.324005 15.4361C0.123516 15.6401 0 15.9215 0 16.233V18.1719C0 18.4824 0.122621 18.7639 0.32132 18.967C0.522704 19.1728 0.801062 19.3003 1.10896 19.3003H9.23057V15.1046ZM23.1747 15.4388C22.9742 15.2339 22.6949 15.1046 22.387 15.1046H14.2654V19.3003H22.387C22.6949 19.3003 22.9733 19.1728 23.1747 18.966C23.3734 18.7629 23.496 18.4815 23.496 18.1719V16.233C23.496 15.9233 23.3734 15.6428 23.1747 15.4388ZM23.1747 7.88728C22.9742 7.68064 22.6949 7.55228 22.387 7.55228H14.2654V11.748H22.387C22.6949 11.748 22.9733 11.6187 23.1747 11.413C23.3734 11.2091 23.496 10.9287 23.496 10.6192V8.68018C23.496 8.37158 23.3734 8.0912 23.1747 7.88728ZM9.23057 7.55228L1.10896 7.55319C0.801957 7.55319 0.524495 7.67973 0.324005 7.88455C0.123516 8.08847 0 8.36976 0 8.68018V10.6192C0 10.9287 0.122621 11.21 0.32132 11.4139C0.522704 11.6196 0.801062 11.748 1.10896 11.748H9.23057V7.55228ZM22.3669 4.19571H1.1291C0.815611 4.19571 0.532198 4.06821 0.327156 3.86239C0.124848 3.65838 0 3.37788 0 3.06732V1.12839C0 0.816921 0.125759 0.535507 0.328978 0.331504C0.53402 0.126591 0.816523 0 1.1291 0H22.3669C22.6804 0 22.9647 0.127502 23.1688 0.334236C23.3711 0.538239 23.496 0.818742 23.496 1.12839V3.06732C23.496 3.37697 23.3711 3.65747 23.1688 3.86148C22.9638 4.06821 22.6804 4.19571 22.3669 4.19571Z" fill="#EB0028"/>
<path fill-rule="evenodd" clip-rule="evenodd" d="M71.5277 0.000691432H70.2557C68.6289 0.000691432 68.5262 0.18075 68.4005 0.463826L65.8832 6.5885C65.0441 8.62109 64.1784 10.8087 63.8483 11.941C63.5429 10.8087 62.9844 9.29026 61.8142 6.48548L59.2978 0.463826C59.1447 0.10371 58.5092 0.000691432 57.1354 0.000691432H55.7122C54.3136 0.000691432 54.0331 0.129688 54.0331 0.412765V18.8889C54.0331 19.2239 54.3136 19.301 55.7626 19.301H56.5513C57.9745 19.301 58.3808 19.2239 58.3808 18.8889V7.92684H58.4835C58.4835 7.92684 58.6101 8.44103 58.8145 8.90417L61.7133 15.775C61.8399 16.0841 61.993 16.214 63.3402 16.214H64.205C65.5769 16.214 65.6796 16.1101 65.8071 15.775L68.4501 9.16216C68.705 8.54405 68.8829 7.92684 68.8829 7.92684H68.9847V18.8889C68.9847 19.2239 69.2635 19.301 70.7647 19.301H71.5277C72.9262 19.301 73.3333 19.2239 73.3333 18.8889V0.412765C73.3333 0.129688 72.9262 0.000691432 71.5277 0.000691432ZM49.8373 0.412765C49.8373 0.129688 49.4443 0.000691432 48.0953 0.000691432H47.3093C45.886 0.000691432 45.6416 0.129688 45.6416 0.412765V18.8889C45.6416 19.2239 45.886 19.301 47.3093 19.301H48.0953C49.4452 19.301 49.8373 19.2239 49.8373 18.8889V0.412765ZM42.6549 0.000691432C43.0443 0.000691432 43.1242 0.0526486 43.1242 1.41607V2.67738C43.1242 3.98974 43.0198 4.14382 42.6549 4.14382H38.2211V18.8889C38.2211 19.2239 37.8035 19.301 36.3174 19.301H35.5349C34.0224 19.301 33.7619 19.2239 33.7619 18.8889V4.14382H29.3281C28.9623 4.14382 28.8588 4.0408 28.8588 2.67738V1.41607C28.8588 0.000691414 28.9369 0.000691432 29.3281 0.000691432H42.6549Z" fill="#0033A1"/>
</g>
<defs>
<clipPath id="clip0_1589_15297">
<rect width="73.3333" height="20" fill="white"/>
</clipPath>
</defs>
</svg>