<svg xmlns="http://www.w3.org/2000/svg" viewBox="0 0 200 60" width="200" height="60">
  <defs>
    <linearGradient id="vodaGrad" x1="0%" y1="0%" x2="100%" y2="100%">
      <stop offset="0%" style="stop-color:#e60000"/>
      <stop offset="100%" style="stop-color:#a10000"/>
    </linearGradient>
  </defs>
  <!-- Vodafone speech mark icon -->
  <circle cx="30" cy="30" r="26" fill="url(#vodaGrad)"/>
  <path d="M30 8C17.8 8 8 17.8 8 30c0 7.5 3.8 14.1 9.6 18.1L22 38c-3.2-2.4-5.3-6.2-5.3-10.5 0-7.3 5.9-13.2 13.3-13.2 7.3 0 13.3 5.9 13.3 13.2 0 4.3-2.1 8.1-5.3 10.5l4.4 10.1C48.2 44.1 52 37.5 52 30 52 17.8 42.2 8 30 8z" fill="#fff"/>
  <!-- Vodafone text -->
  <text x="65" y="38" font-family="VodafoneRg, Arial, sans-serif" font-weight="700" font-size="28" fill="#e60000">Vodafone</text>
</svg>